<svg width="20" height="20" viewBox="0 0 20 20" fill="none" xmlns="http://www.w3.org/2000/svg">
<path d="M14.5181 6.86915C14.5181 5.60989 14.0179 4.4022 13.1274 3.51177C12.237 2.62133 11.0293 2.12109 9.77004 2.12109C8.51077 2.12109 7.30309 2.62133 6.41265 3.51177C5.52222 4.4022 5.02198 5.60989 5.02198 6.86915C5.02198 12.4086 2.64795 13.9912 2.64795 13.9912H16.8921C16.8921 13.9912 14.5181 12.4086 14.5181 6.86915Z" stroke="white" stroke-width="1.58269" stroke-linecap="round" stroke-linejoin="round"/>
<path d="M11.1389 17.1582C10.9998 17.398 10.8001 17.5971 10.5598 17.7355C10.3196 17.8739 10.0472 17.9467 9.7699 17.9467C9.49263 17.9467 9.22023 17.8739 8.97996 17.7355C8.7397 17.5971 8.54001 17.398 8.40088 17.1582" stroke="white" stroke-width="1.58269" stroke-linecap="round" stroke-linejoin="round"/>
</svg>
