<svg width="64" height="64" viewBox="0 0 64 64" fill="none" xmlns="http://www.w3.org/2000/svg">
<rect width="64" height="64" rx="32" fill="#161827"/>
<path d="M38.4 16.8008H25.6C22.949 16.8008 20.8 18.9498 20.8 21.6008V42.4008C20.8 45.0517 22.949 47.2008 25.6 47.2008H38.4C41.051 47.2008 43.2 45.0517 43.2 42.4008V21.6008C43.2 18.9498 41.051 16.8008 38.4 16.8008Z" stroke="white" stroke-width="1.6" stroke-linecap="round" stroke-linejoin="round"/>
<path d="M32 16.8008H25.6C22.949 16.8008 20.8 18.9498 20.8 21.6008V42.4008C20.8 45.0517 22.949 47.2008 25.6 47.2008H32C34.651 47.2008 36.8 45.0517 36.8 42.4008V21.6008C36.8 18.9498 34.651 16.8008 32 16.8008Z" stroke="white" stroke-width="1.6"/>
<path d="M33.2 33.5992C33.8627 33.5992 34.4 33.062 34.4 32.3992C34.4 31.7365 33.8627 31.1992 33.2 31.1992C32.5373 31.1992 32 31.7365 32 32.3992C32 33.062 32.5373 33.5992 33.2 33.5992Z" fill="white"/>
<path fill-rule="evenodd" clip-rule="evenodd" d="M36.5333 32.1576C36.5333 31.6957 36.7285 31.2797 37.0411 30.9875L41.9819 26.0659C42.2826 25.7664 42.6899 25.5987 43.1143 25.5996C43.5387 25.6005 43.9453 25.77 44.2448 26.0707C44.5442 26.3714 44.712 26.7788 44.7111 27.2031C44.7102 27.6275 44.5407 28.0342 44.24 28.3336L42.0075 30.5565H49.8165C50.0266 30.5565 50.2347 30.5979 50.4288 30.6783C50.6229 30.7587 50.7993 30.8766 50.9479 31.0252C51.0965 31.1738 51.2143 31.3501 51.2947 31.5443C51.3751 31.7384 51.4165 31.9464 51.4165 32.1565C51.4165 32.3667 51.3751 32.5747 51.2947 32.7688C51.2143 32.963 51.0965 33.1393 50.9479 33.2879C50.7993 33.4365 50.6229 33.5543 50.4288 33.6348C50.2347 33.7152 50.0266 33.7565 49.8165 33.7565H42.0064L44.24 35.9805C44.3889 36.1288 44.5071 36.305 44.588 36.4989C44.6688 36.6929 44.7106 36.9009 44.7111 37.111C44.7115 37.3212 44.6706 37.5293 44.5906 37.7236C44.5106 37.9179 44.3931 38.0946 44.2448 38.2435C44.0965 38.3924 43.9204 38.5106 43.7264 38.5914C43.5324 38.6723 43.3245 38.7141 43.1143 38.7146C42.6899 38.7155 42.2826 38.5477 41.9819 38.2483L37.0048 33.2904C36.8557 33.142 36.7373 32.9657 36.6564 32.7715C36.5755 32.5773 36.5336 32.3691 36.5333 32.1587" fill="white"/>
<path d="M36.5333 32.1576C36.5333 31.6957 36.7285 31.2797 37.0411 30.9875L41.9819 26.0659C42.2826 25.7664 42.6899 25.5987 43.1143 25.5996C43.5387 25.6005 43.9453 25.77 44.2448 26.0707C44.5442 26.3714 44.712 26.7788 44.7111 27.2031C44.7102 27.6275 44.5407 28.0342 44.24 28.3336L42.0075 30.5565H49.8165C50.0266 30.5565 50.2347 30.5979 50.4288 30.6783C50.6229 30.7587 50.7993 30.8766 50.9479 31.0252C51.0965 31.1738 51.2143 31.3501 51.2947 31.5443C51.3751 31.7384 51.4165 31.9464 51.4165 32.1565C51.4165 32.3667 51.3751 32.5747 51.2947 32.7688C51.2143 32.963 51.0965 33.1393 50.9479 33.2879C50.7993 33.4365 50.6229 33.5543 50.4288 33.6348C50.2347 33.7152 50.0266 33.7565 49.8165 33.7565H42.0064L44.24 35.9805C44.3889 36.1288 44.5071 36.305 44.588 36.4989C44.6688 36.6929 44.7106 36.9009 44.7111 37.111C44.7115 37.3212 44.6706 37.5293 44.5906 37.7236C44.5106 37.9179 44.3931 38.0946 44.2448 38.2435C44.0965 38.3924 43.9204 38.5106 43.7264 38.5914C43.5324 38.6723 43.3245 38.7141 43.1143 38.7146C42.6899 38.7155 42.2826 38.5477 41.9819 38.2483L37.0048 33.2904C36.8557 33.142 36.7373 32.9657 36.6564 32.7715C36.5755 32.5773 36.5336 32.3691 36.5333 32.1587" stroke="#161827" stroke-width="1.06667"/>
</svg>
