<svg width="24" height="24" viewBox="0 0 24 24" fill="none" xmlns="http://www.w3.org/2000/svg">
<path d="M6.27059 19.5671C7.33572 19.5671 8.20719 18.6956 8.20719 17.6305V10.8523C8.20719 9.7872 7.33572 8.91573 6.27059 8.91573C5.20546 8.91573 4.33398 9.7872 4.33398 10.8523V17.6305C4.33398 18.6956 5.20546 19.5671 6.27059 19.5671ZM15.9536 14.7255V17.6305C15.9536 18.6956 16.8251 19.5671 17.8902 19.5671C18.9553 19.5671 19.8268 18.6956 19.8268 17.6305V14.7255C19.8268 13.6604 18.9553 12.7889 17.8902 12.7889C16.8251 12.7889 15.9536 13.6604 15.9536 14.7255ZM12.0804 19.5671C13.1455 19.5671 14.017 18.6956 14.017 17.6305V6.01082C14.017 4.94569 13.1455 4.07422 12.0804 4.07422C11.0153 4.07422 10.1438 4.94569 10.1438 6.01082V17.6305C10.1438 18.6956 11.0153 19.5671 12.0804 19.5671Z" fill="white" fill-opacity="0.7"/>
</svg>
