<svg width="73" height="72" viewBox="0 0 73 72" fill="none" xmlns="http://www.w3.org/2000/svg">
<g clip-path="url(#clip0_1005_2397)">
<path d="M0.148438 24C0.148438 12.6863 0.148438 7.02944 3.66316 3.51472C7.17788 0 12.8347 0 24.1484 0H48.1484C59.4621 0 65.119 0 68.6337 3.51472C72.1484 7.02944 72.1484 12.6863 72.1484 24V48C72.1484 59.3137 72.1484 64.9706 68.6337 68.4853C65.119 72 59.4621 72 48.1484 72H24.1484C12.8347 72 7.17788 72 3.66316 68.4853C0.148438 64.9706 0.148438 59.3137 0.148438 48V24Z" fill="#A55FFF"/>
<path fill-rule="evenodd" clip-rule="evenodd" d="M36.1484 25C37.8052 25 39.1484 23.6568 39.1484 22C39.1484 20.3432 37.8052 19 36.1484 19C34.4916 19 33.1484 20.3432 33.1484 22C33.1484 23.6568 34.4916 25 36.1484 25ZM54.1484 31.6032C54.1484 30.5231 53.8217 29.5588 53.1561 28.7101C52.2365 27.5529 51.0505 27 49.6469 27L26.0502 27.09C25.542 27.1093 25.0368 27.1061 24.5316 27.1028C24.0263 27.0996 23.5211 27.0964 23.0129 27.1157C20.5685 27.2185 18.1484 29.1601 18.1484 32.3746V44.3968C18.1484 45.4769 18.4751 46.4412 19.1407 47.2899C20.0603 48.4471 21.2462 49 22.6499 49H25.3847L46.2223 48.91H46.2465C46.7548 48.8907 47.26 48.8939 47.7652 48.8972C48.2704 48.9004 48.7756 48.9036 49.2838 48.8843C51.7282 48.7815 54.1484 46.8399 54.1484 43.6254V31.6032ZM46.2264 34.0034C47.9127 34.0685 49.1355 35.4359 49.1484 37.1028C49.1484 38.5613 47.4106 40.1109 46.0333 39.9937C44.3856 39.8505 43.0984 38.5223 43.1499 36.8814C43.2014 35.2015 44.553 33.9253 46.2264 34.0034ZM26.2497 34.0024C27.9483 34.0677 29.2579 35.4396 29.1412 37.1512C29.0245 38.8759 27.7667 40.0257 26.0552 39.9996C24.4084 39.9734 23.0859 38.5493 23.1507 36.9422C23.2285 35.2175 24.564 33.9371 26.2626 34.0024H26.2497ZM34.8588 42.8082C35.6487 43.0691 36.4904 43.0537 37.2803 42.8235V42.8541C37.7594 42.716 38.2385 42.4858 38.6658 42.0868C39.0931 41.6724 39.3133 41.1506 39.0025 40.5214C38.6788 39.8768 38.2126 39.9075 37.7076 40.2298C36.6846 40.859 35.6487 40.8744 34.6127 40.2298C34.1336 39.9228 33.6287 39.8461 33.3049 40.4907C32.9682 41.1353 33.2142 41.6878 33.6675 42.1175C34.03 42.4551 34.4314 42.67 34.8588 42.8082ZM15.2991 34.1022C15.6279 33.8649 16.1484 34.0683 16.1484 34.4299V41.5702C16.1484 41.9317 15.6279 42.1351 15.2991 41.8978C13.984 40.9488 13.1484 39.5591 13.1484 38C13.1484 36.4409 13.984 35.0512 15.2991 34.1022ZM56.9977 41.8978C56.6689 42.1351 56.1484 41.9317 56.1484 41.5701V34.4299C56.1484 34.0683 56.6689 33.8649 56.9977 34.1022C58.3128 35.0512 59.1484 36.4409 59.1484 38C59.1484 39.5591 58.3128 40.9488 56.9977 41.8978Z" fill="white"/>
</g>
<defs>
<clipPath id="clip0_1005_2397">
<rect width="72" height="72" fill="white" transform="translate(0.148438)"/>
</clipPath>
</defs>
</svg>
