<svg width="73" height="72" viewBox="0 0 73 72" fill="none" xmlns="http://www.w3.org/2000/svg">
<g clip-path="url(#clip0_788_6008)">
<path d="M0.150391 24C0.150391 12.6863 0.150391 7.02944 3.66511 3.51472C7.17983 0 12.8367 0 24.1504 0H48.1504C59.4641 0 65.121 0 68.6357 3.51472C72.1504 7.02944 72.1504 12.6863 72.1504 24V48C72.1504 59.3137 72.1504 64.9706 68.6357 68.4853C65.121 72 59.4641 72 48.1504 72H24.1504C12.8367 72 7.17983 72 3.66511 68.4853C0.150391 64.9706 0.150391 59.3137 0.150391 48V24Z" fill="#5B58EB"/>
<path d="M36.1504 47.0001C38.9118 47.0001 41.1504 44.7615 41.1504 42.0001C41.1504 39.2387 38.9118 37.0001 36.1504 37.0001C33.389 37.0001 31.1504 39.2387 31.1504 42.0001C31.1504 44.7615 33.389 47.0001 36.1504 47.0001Z" fill="white"/>
<path d="M46.5226 58.9998C46.8944 58.9998 47.1866 58.651 47.1468 58.244C46.7882 54.9446 44.9422 48.9998 36.1504 48.9998C27.3586 48.9998 25.5126 54.9736 25.154 58.244C25.1142 58.651 25.4064 58.9998 25.7782 58.9998H46.5226Z" fill="white"/>
<path fill-rule="evenodd" clip-rule="evenodd" d="M53.9891 17.9647C52.6385 15.5183 49.9374 14.0002 47.0112 14.0002H25.3094C22.5686 14.0002 19.9469 15.2924 18.5699 17.5381C14.6373 24.0118 19.457 30.6234 25.9185 30.6234H39.4242L39.6096 30.7113L44.2836 35.8802C44.5087 36.1185 44.9191 35.9805 44.9191 35.6543V30.7865C44.9191 30.7238 44.9456 30.6736 44.9986 30.6234H46.4683H46.508C52.7577 30.5356 57.4317 24.2502 53.9759 17.9647H53.9891ZM41.154 21.0002H25.1468C24.5904 21.0002 24.1504 20.5456 24.1504 20.0002C24.1504 19.4547 24.6033 19.0002 25.1468 19.0002H41.154C41.7104 19.0002 42.1504 19.4547 42.1504 20.0002C42.1504 20.5456 41.6975 21.0002 41.154 21.0002ZM25.1467 23.0002C24.6033 23.0002 24.1504 23.4418 24.1504 24.0002C24.1504 24.5457 24.5903 25.0002 25.1467 25.0002H37.1541C37.6975 25.0002 38.1504 24.5457 38.1504 24.0002C38.1504 23.4548 37.7105 23.0002 37.1541 23.0002H25.1467Z" fill="white"/>
</g>
<defs>
<clipPath id="clip0_788_6008">
<rect width="72" height="72" fill="white" transform="translate(0.150391)"/>
</clipPath>
</defs>
</svg>
