<svg width="22" height="22" viewBox="0 0 22 22" fill="none" xmlns="http://www.w3.org/2000/svg">
<path d="M11.1171 2.24414C6.16533 2.24414 2.14648 6.26298 2.14648 11.2148C2.14648 16.1666 6.16533 20.1854 11.1171 20.1854C16.0689 20.1854 20.0877 16.1666 20.0877 11.2148C20.0877 6.26298 16.0689 2.24414 11.1171 2.24414ZM11.1171 5.83239C12.8484 5.83239 14.2568 7.24078 14.2568 8.97211C14.2568 10.7034 12.8484 12.1118 11.1171 12.1118C9.38578 12.1118 7.97739 10.7034 7.97739 8.97211C7.97739 7.24078 9.38578 5.83239 11.1171 5.83239ZM11.1171 18.3913C9.29608 18.3913 7.14313 17.6557 5.60915 15.8077C7.12518 14.6236 9.03593 13.906 11.1171 13.906C13.1983 13.906 15.109 14.6236 16.6251 15.8077C15.0911 17.6557 12.9382 18.3913 11.1171 18.3913Z" fill="white" fill-opacity="0.56"/>
</svg>
