<svg width="23" height="22" viewBox="0 0 23 22" fill="none" xmlns="http://www.w3.org/2000/svg">
<path d="M6.32089 17.4936C6.32089 18.4804 7.12825 19.2878 8.11502 19.2878H15.2915C16.2783 19.2878 17.0856 18.4804 17.0856 17.4936V8.523C17.0856 7.53623 16.2783 6.72888 15.2915 6.72888H8.11502C7.12825 6.72888 6.32089 7.53623 6.32089 8.523V17.4936ZM17.0856 4.03769H14.843L14.2061 3.40077C14.0446 3.2393 13.8114 3.14062 13.5781 3.14062H9.82841C9.59517 3.14062 9.36193 3.2393 9.20046 3.40077L8.56355 4.03769H6.32089C5.82751 4.03769 5.42383 4.44137 5.42383 4.93475C5.42383 5.42814 5.82751 5.83181 6.32089 5.83181H17.0856C17.579 5.83181 17.9827 5.42814 17.9827 4.93475C17.9827 4.44137 17.579 4.03769 17.0856 4.03769Z" fill="white" fill-opacity="0.56"/>
</svg>
