<svg width="32" height="32" viewBox="0 0 32 32" fill="none" xmlns="http://www.w3.org/2000/svg">
<path d="M25.9948 6.55661C24.2 5.73307 22.2754 5.12631 20.263 4.7788C20.2264 4.77209 20.1898 4.78886 20.1708 4.82237C19.9233 5.26263 19.6491 5.83698 19.4571 6.28841C17.2928 5.96438 15.1394 5.96438 13.0193 6.28841C12.8273 5.82694 12.5432 5.26263 12.2945 4.82237C12.2756 4.78998 12.239 4.77321 12.2024 4.7788C10.1911 5.12521 8.26645 5.73195 6.47051 6.55661C6.45497 6.5633 6.44165 6.57449 6.4328 6.589C2.78209 12.0431 1.78201 17.363 2.27262 22.6172C2.27484 22.6429 2.28926 22.6675 2.30924 22.6831C4.71787 24.4519 7.05104 25.5257 9.3409 26.2375C9.37755 26.2487 9.41637 26.2354 9.43969 26.2052C9.98136 25.4654 10.4642 24.6855 10.8782 23.8653C10.9026 23.8173 10.8793 23.7602 10.8294 23.7413C10.0635 23.4507 9.33423 23.0965 8.63273 22.6942C8.57724 22.6619 8.5728 22.5825 8.62384 22.5445C8.77147 22.4339 8.91913 22.3188 9.06009 22.2026C9.08559 22.1813 9.12112 22.1769 9.15111 22.1903C13.7597 24.2944 18.749 24.2944 23.3031 22.1903C23.3332 22.1757 23.3687 22.1802 23.3953 22.2014C23.5363 22.3177 23.6839 22.4339 23.8327 22.5445C23.8837 22.5825 23.8804 22.6619 23.8249 22.6942C23.1234 23.1044 22.3941 23.4507 21.6271 23.7401C21.5772 23.7592 21.555 23.8173 21.5795 23.8653C22.0023 24.6844 22.4852 25.4643 23.0168 26.204C23.0391 26.2354 23.079 26.2487 23.1156 26.2375C25.4165 25.5257 27.7497 24.4519 30.1583 22.6831C30.1794 22.6675 30.1927 22.6439 30.195 22.6182C30.7822 16.544 29.2115 11.2676 26.0314 6.59012C26.0238 6.57449 26.0105 6.5633 25.9948 6.55661ZM11.5664 19.418C10.1789 19.418 9.03566 18.1442 9.03566 16.5798C9.03566 15.0154 10.1567 13.7415 11.5664 13.7415C12.9871 13.7415 14.1194 15.0265 14.0971 16.5798C14.0971 18.1442 12.976 19.418 11.5664 19.418ZM20.9235 19.418C19.536 19.418 18.3927 18.1442 18.3927 16.5798C18.3927 15.0154 19.5138 13.7415 20.9235 13.7415C22.3441 13.7415 23.4763 15.0265 23.4542 16.5798C23.4542 18.1442 22.3441 19.418 20.9235 19.418Z" fill="white"/>
</svg>
