<svg width="73" height="72" viewBox="0 0 73 72" fill="none" xmlns="http://www.w3.org/2000/svg">
<g clip-path="url(#clip0_1005_2423)">
<path d="M0.148438 24C0.148438 12.6863 0.148438 7.02944 3.66316 3.51472C7.17788 0 12.8347 0 24.1484 0H48.1484C59.4621 0 65.119 0 68.6337 3.51472C72.1484 7.02944 72.1484 12.6863 72.1484 24V48C72.1484 59.3137 72.1484 64.9706 68.6337 68.4853C65.119 72 59.4621 72 48.1484 72H24.1484C12.8347 72 7.17788 72 3.66316 68.4853C0.148438 64.9706 0.148438 59.3137 0.148438 48V24Z" fill="#112C70"/>
<path fill-rule="evenodd" clip-rule="evenodd" d="M14.1484 30.751C14.1484 25.3538 18.421 21 23.6894 21H48.6073C53.8883 21 58.1484 25.3667 58.1484 30.751V44.9974C58.1484 48.3079 55.5142 51 52.275 51C50.6365 51 49.4013 50.1627 48.5443 49.0678C47.8124 48.1328 47.2827 47.01 46.759 45.8998C46.6694 45.7099 46.58 45.5204 46.4898 45.3323C46.3868 45.1194 46.2849 44.9044 46.1832 44.6897C45.7126 43.6966 45.2449 42.7095 44.6749 41.9575C43.9943 41.0558 43.2507 40.5019 42.0155 40.5019H30.2813C29.0587 40.5019 28.3151 41.0429 27.6219 41.9575C27.0673 42.6891 26.6096 43.6516 26.1518 44.6141C26.0373 44.8547 25.9229 45.0953 25.807 45.3323C25.7168 45.5204 25.6274 45.7099 25.5379 45.8997C25.0141 47.0099 24.4844 48.1328 23.7525 49.0678C22.8955 50.1627 21.6729 51 20.0218 51C16.7826 51 14.1484 48.3079 14.1484 44.9974V30.751ZM33.1484 25C33.1484 24.4477 33.5961 24 34.1484 24H38.1484C38.7007 24 39.1484 24.4477 39.1484 25C39.1484 25.5523 38.7007 26 38.1484 26H34.1484C33.5961 26 33.1484 25.5523 33.1484 25ZM49.1541 26C50.2544 26 51.1484 26.9054 51.1484 28.0057C51.1484 29.106 50.243 30 49.1541 30C48.0653 30 47.1484 29.0946 47.1484 28.0057C47.1484 26.9169 48.0538 26 49.1541 26ZM26.8792 30.7308H24.6356C24.5587 30.7308 24.4946 30.6923 24.4689 30.6667C24.4433 30.641 24.4047 30.5897 24.4047 30.5V28.2692C24.4047 27.5641 23.8535 27 23.1484 27C22.4432 27 21.8791 27.5513 21.8791 28.2692V30.5128C21.8791 30.6026 21.8407 30.6538 21.8151 30.6795C21.7894 30.7051 21.7381 30.7436 21.6484 30.7436H19.4048C18.6997 30.7436 18.1484 31.2949 18.1484 32C18.1484 32.7051 18.6997 33.2692 19.4048 33.2692H21.6484C21.7766 33.2692 21.8791 33.3718 21.8791 33.5V35.7308C21.8791 36.4359 22.4304 37 23.1484 37C23.8663 37 24.4047 36.4487 24.4047 35.7308V33.5C24.4047 33.3718 24.5074 33.2692 24.6356 33.2692H26.8792C27.5843 33.2692 28.1484 32.7179 28.1484 32C28.1484 31.282 27.5971 30.7436 26.8792 30.7436V30.7308ZM47.1484 32.0057C47.1484 30.9054 46.243 30 45.1427 30C44.0539 30 43.1484 30.9169 43.1484 32.0057C43.1484 33.0946 44.0424 34 45.1427 34C46.243 34 47.1484 33.106 47.1484 32.0057ZM53.1484 30C54.2518 30 55.1484 30.9054 55.1484 32.0057C55.1484 33.106 54.2403 34 53.1484 34C52.0564 34 51.1484 33.0946 51.1484 32.0057C51.1484 30.9169 52.0564 30 53.1484 30ZM51.1484 35.9943C51.1484 34.9054 50.2544 34 49.1541 34C48.0538 34 47.1484 34.894 47.1484 35.9943C47.1484 37.0946 48.0653 38 49.1541 38C50.243 38 51.1484 37.0831 51.1484 35.9943Z" fill="white"/>
</g>
<defs>
<clipPath id="clip0_1005_2423">
<rect width="72" height="72" fill="white" transform="translate(0.148438)"/>
</clipPath>
</defs>
</svg>
