<svg width="31" height="32" viewBox="0 0 31 32" fill="none" xmlns="http://www.w3.org/2000/svg">
<path fill-rule="evenodd" clip-rule="evenodd" d="M15.4013 5.28983C18.8233 5.28983 19.2285 5.30484 20.5743 5.36484C21.825 5.41986 22.5004 5.62989 22.9506 5.80493C23.5461 6.03497 23.9763 6.31504 24.4216 6.76012C24.8718 7.21021 25.147 7.63529 25.3771 8.2304C25.5522 8.68049 25.7623 9.36063 25.8173 10.6059C25.8773 11.9561 25.8924 12.3612 25.8924 15.7769C25.8924 19.1976 25.8773 19.6027 25.8173 20.9478C25.7623 22.1981 25.5522 22.8732 25.3771 23.3234C25.147 23.9185 24.8668 24.3485 24.4216 24.7936C23.9713 25.2438 23.5461 25.5188 22.9506 25.7489C22.5004 25.9238 21.82 26.1339 20.5743 26.1889C19.2235 26.249 18.8183 26.2639 15.4013 26.2639C11.9792 26.2639 11.574 26.249 10.2282 26.1889C8.97749 26.1339 8.30209 25.9238 7.85184 25.7489C7.25648 25.5188 6.82622 25.2388 6.38096 24.7936C5.93071 24.3435 5.65555 23.9185 5.4254 23.3234C5.2503 22.8732 5.04019 22.1931 4.98515 20.9478C4.92512 19.5977 4.9101 19.1926 4.9101 15.7769C4.9101 12.3562 4.92512 11.9511 4.98515 10.6059C5.04019 9.35563 5.2503 8.68049 5.4254 8.2304C5.65555 7.63529 5.9357 7.2052 6.38096 6.76012C6.83123 6.31003 7.25648 6.03497 7.85184 5.80493C8.30209 5.62989 8.9825 5.41986 10.2282 5.36484C11.574 5.30484 11.9792 5.28983 15.4013 5.28983ZM15.4013 2.98438C11.9242 2.98438 11.489 2.99939 10.1232 3.0594C8.76236 3.1194 7.82681 3.33945 7.01634 3.65451C6.17085 3.98458 5.45543 4.41966 4.74501 5.1348C4.02959 5.84494 3.59434 6.56008 3.26414 7.40025C2.94896 8.2154 2.72883 9.14558 2.6688 10.5058C2.60876 11.8761 2.59375 12.3112 2.59375 15.7869C2.59375 19.2626 2.60876 19.6977 2.6688 21.0629C2.72883 22.4232 2.94896 23.3583 3.26414 24.1686C3.59434 25.0136 4.02959 25.7289 4.74501 26.4389C5.45543 27.149 6.17085 27.5892 7.01134 27.9142C7.82681 28.2294 8.75736 28.4494 10.1182 28.5093C11.484 28.5693 11.9192 28.5844 15.3963 28.5844C18.8733 28.5844 19.3085 28.5693 20.6744 28.5093C22.0352 28.4494 22.9707 28.2294 23.7812 27.9142C24.6217 27.5892 25.337 27.149 26.0474 26.4389C26.7578 25.7289 27.1982 25.0136 27.5234 24.1736C27.8386 23.3583 28.0587 22.4282 28.1187 21.0679C28.1788 19.7026 28.1938 19.2676 28.1938 15.7919C28.1938 12.3162 28.1788 11.8811 28.1187 10.5159C28.0587 9.15559 27.8386 8.22041 27.5234 7.41024C27.2082 6.56008 26.773 5.84494 26.0576 5.1348C25.347 4.42466 24.6316 3.98458 23.7912 3.65951C22.9757 3.34445 22.0451 3.12441 20.6844 3.0644C19.3135 2.99939 18.8783 2.98438 15.4013 2.98438ZM15.4012 9.21065C11.7691 9.21065 8.82237 12.1562 8.82237 15.787C8.82237 19.4176 11.7691 22.3633 15.4012 22.3633C19.0333 22.3633 21.9801 19.4176 21.9801 15.787C21.9801 12.1562 19.0333 9.21065 15.4012 9.21065ZM15.4012 20.0527C13.0448 20.0527 11.1337 18.1425 11.1337 15.787C11.1337 13.4315 13.0448 11.5211 15.4012 11.5211C17.7577 11.5211 19.6687 13.4315 19.6687 15.787C19.6687 18.1425 17.7577 20.0527 15.4012 20.0527ZM22.2403 10.4859C23.0858 10.4859 23.7762 9.80075 23.7762 8.95058C23.7762 8.10541 23.0858 7.41527 22.2403 7.41527C21.3948 7.41527 20.7043 8.10041 20.7043 8.95058C20.7043 9.79574 21.3898 10.4859 22.2403 10.4859Z" fill="white"/>
</svg>
