<svg width="12" height="13" viewBox="0 0 12 13" fill="none" xmlns="http://www.w3.org/2000/svg">
<path d="M1.14844 8.17969C1.02865 8.0599 0.929688 7.95312 0.851562 7.85938C0.773438 7.76042 0.734375 7.67448 0.734375 7.60156C0.734375 7.52344 0.768229 7.45573 0.835938 7.39844C0.908854 7.33594 0.994792 7.28646 1.09375 7.25C1.19271 7.20833 1.29688 7.17969 1.40625 7.16406C1.52083 7.14323 1.61719 7.13281 1.69531 7.13281C1.77865 7.13281 1.84635 7.15365 1.89844 7.19531C1.95573 7.23177 2.02083 7.28646 2.09375 7.35938C2.58333 7.84896 3.02604 8.375 3.42188 8.9375C3.82292 9.5 4.19271 10.0573 4.53125 10.6094C5.18229 8.80729 5.9401 7.0599 6.80469 5.36719C7.66927 3.67448 8.64323 2.08854 9.72656 0.609375C9.83073 0.463542 9.99219 0.351562 10.2109 0.273438C10.4349 0.195312 10.6849 0.15625 10.9609 0.15625C11.0495 0.15625 11.1198 0.174479 11.1719 0.210938C11.224 0.242188 11.25 0.289062 11.25 0.351562C11.25 0.414062 11.2422 0.46875 11.2266 0.515625C11.2109 0.557292 11.1745 0.614583 11.1172 0.6875C10.5391 1.45312 9.97656 2.25521 9.42969 3.09375C8.88802 3.93229 8.36979 4.81771 7.875 5.75C7.38021 6.67708 6.91146 7.65104 6.46875 8.67188C6.02604 9.69271 5.61979 10.7656 5.25 11.8906C5.23958 11.9219 5.21094 11.9505 5.16406 11.9766C5.11719 11.9974 5.0599 12.0156 4.99219 12.0312C4.92448 12.0469 4.84896 12.0573 4.76562 12.0625C4.68229 12.0729 4.59896 12.0781 4.51562 12.0781C4.39583 12.0781 4.28646 12.0651 4.1875 12.0391C4.08854 12.0182 4.01562 11.9688 3.96875 11.8906C3.71875 11.4635 3.48698 11.0885 3.27344 10.7656C3.0599 10.4375 2.84375 10.1328 2.625 9.85156C2.40625 9.57031 2.17708 9.29688 1.9375 9.03125C1.70312 8.76562 1.4401 8.48177 1.14844 8.17969Z" fill="#22C55E"/>
</svg>
