<svg width="24" height="24" viewBox="0 0 24 24" fill="none" xmlns="http://www.w3.org/2000/svg">
<path d="M5.33407 5.10848H11.1439C11.6764 5.10848 12.1122 4.67274 12.1122 4.14018C12.1122 3.60761 11.6764 3.17188 11.1439 3.17188H5.33407C4.26893 3.17188 3.39746 4.04335 3.39746 5.10848V18.6647C3.39746 19.7298 4.26893 20.6013 5.33407 20.6013H11.1439C11.6764 20.6013 12.1122 20.1656 12.1122 19.633C12.1122 19.1004 11.6764 18.6647 11.1439 18.6647H5.33407V5.10848Z" fill="white" fill-opacity="0.7"/>
<path d="M20.4878 11.5475L17.7862 8.84595C17.4763 8.53609 16.9534 8.74912 16.9534 9.18486V10.9181H10.1753C9.64277 10.9181 9.20703 11.3539 9.20703 11.8864C9.20703 12.419 9.64277 12.8547 10.1753 12.8547H16.9534V14.588C16.9534 15.0237 17.4763 15.2367 17.7765 14.9269L20.4781 12.2253C20.6717 12.0413 20.6717 11.7315 20.4878 11.5475Z" fill="white" fill-opacity="0.7"/>
</svg>
