<svg width="33" height="33" viewBox="0 0 33 33" fill="none" xmlns="http://www.w3.org/2000/svg">
<rect width="33" height="33" rx="4.62" fill="#33384E"/>
<path d="M7.57823 10.3348C7.45422 10.5323 7.53518 10.785 7.73345 10.9078L16.0082 16.0302C16.3097 16.2169 16.6909 16.2169 16.9924 16.0302L25.2673 10.9077C25.4655 10.7849 25.5465 10.5322 25.4225 10.3347C24.9263 9.54469 24.0472 9.01953 23.0454 9.01953H9.95539C8.95357 9.01953 8.07441 9.54473 7.57823 10.3348Z" fill="#FB0442"/>
<path d="M25.8504 13.5853C25.8504 13.219 25.4483 12.995 25.1368 13.1878L17.9767 17.6202C17.0721 18.1802 15.9285 18.1802 15.0239 17.6202L7.86396 13.1879C7.55252 12.9951 7.15039 13.2191 7.15039 13.5854V21.1745C7.15039 22.7237 8.40623 23.9795 9.95539 23.9795H23.0454C24.5945 23.9795 25.8504 22.7237 25.8504 21.1745V13.5853Z" fill="#FB0442"/>
</svg>
