<svg width="33" height="33" viewBox="0 0 33 33" fill="none" xmlns="http://www.w3.org/2000/svg">
<rect width="33" height="33" rx="4.62" fill="#33384E"/>
<path fill-rule="evenodd" clip-rule="evenodd" d="M14.7299 7.99317C15.8219 6.3955 18.1787 6.39551 19.2707 7.99317L19.7026 8.62512C22.4086 12.5843 24.7336 16.7909 26.6463 21.1886L26.7365 21.396C27.4106 22.9458 26.3922 24.7055 24.7127 24.8932C19.587 25.4661 14.4135 25.4661 9.2879 24.8932C7.60836 24.7055 6.58999 22.9458 7.26405 21.396L7.35426 21.1886C9.26699 16.791 11.592 12.5843 14.298 8.62512L14.7299 7.99317ZM18.0003 13.0005C18.0003 13.5528 17.5526 14.0005 17.0003 14.0005C16.448 14.0005 16.0003 13.5528 16.0003 13.0005C16.0003 12.4483 16.448 12.0005 17.0003 12.0005C17.5526 12.0005 18.0003 12.4483 18.0003 13.0005ZM17.0003 15.7505C17.4145 15.7505 17.7503 16.0863 17.7503 16.5005V21.5005C17.7503 21.9148 17.4145 22.2505 17.0003 22.2505C16.5861 22.2505 16.2503 21.9148 16.2503 21.5005V16.5005C16.2503 16.0863 16.5861 15.7505 17.0003 15.7505Z" fill="#FA1E1E"/>
</svg>
