<svg width="33" height="33" viewBox="0 0 33 33" fill="none" xmlns="http://www.w3.org/2000/svg">
<rect width="33" height="33" rx="4.62" fill="#33384E"/>
<path d="M24.17 11.6395C23.74 9.46953 22.13 8.51953 19.89 8.51953H11.11C8.46996 8.51953 6.70996 9.83953 6.70996 12.9195V18.0695C6.70996 20.2895 7.61996 21.5895 9.11996 22.1495C9.33996 22.2295 9.57996 22.2995 9.82996 22.3395C10.23 22.4295 10.66 22.4695 11.11 22.4695H19.9C22.54 22.4695 24.3 21.1495 24.3 18.0695V12.9195C24.3 12.4495 24.26 12.0295 24.17 11.6395ZM10.53 16.9995C10.53 17.4095 10.19 17.7495 9.77996 17.7495C9.36996 17.7495 9.02996 17.4095 9.02996 16.9995V13.9995C9.02996 13.5895 9.36996 13.2495 9.77996 13.2495C10.19 13.2495 10.53 13.5895 10.53 13.9995V16.9995ZM15.5 18.1395C14.04 18.1395 12.86 16.9595 12.86 15.4995C12.86 14.0395 14.04 12.8595 15.5 12.8595C16.96 12.8595 18.14 14.0395 18.14 15.4995C18.14 16.9595 16.96 18.1395 15.5 18.1395ZM21.96 16.9995C21.96 17.4095 21.62 17.7495 21.21 17.7495C20.8 17.7495 20.46 17.4095 20.46 16.9995V13.9995C20.46 13.5895 20.8 13.2495 21.21 13.2495C21.62 13.2495 21.96 13.5895 21.96 13.9995V16.9995Z" fill="#15F709"/>
<path d="M27.2998 15.9203V21.0703C27.2998 24.1503 25.5398 25.4803 22.8898 25.4803H14.1098C13.3598 25.4803 12.6898 25.3703 12.1098 25.1503C11.6398 24.9803 11.2298 24.7303 10.8998 24.4103C10.7198 24.2403 10.8598 23.9703 11.1098 23.9703H19.8898C23.5898 23.9703 25.7898 21.7703 25.7898 18.0803V12.9203C25.7898 12.6803 26.0598 12.5303 26.2298 12.7103C26.9098 13.4303 27.2998 14.4803 27.2998 15.9203Z" fill="#15F709"/>
</svg>
