<svg width="14" height="15" viewBox="0 0 14 15" fill="none" xmlns="http://www.w3.org/2000/svg">
<path fill-rule="evenodd" clip-rule="evenodd" d="M6.12498 0.609375H6.04273C5.67785 0.609375 5.3576 0.6085 5.07848 0.69425C4.77805 0.786537 4.50479 0.950976 4.28256 1.17321C4.06033 1.39544 3.89589 1.6687 3.8036 1.96913C3.71785 2.24825 3.71785 2.5685 3.71873 2.93338V3.09788C3.71785 3.46275 3.71785 3.783 3.8036 4.06213C3.89589 4.36255 4.06033 4.63581 4.28256 4.85804C4.50479 5.08027 4.77805 5.24471 5.07848 5.337C5.3576 5.42275 5.67785 5.42275 6.04273 5.42188H7.95723C8.3221 5.42275 8.64235 5.42275 8.92148 5.337C9.22191 5.24471 9.49517 5.08027 9.7174 4.85804C9.93963 4.63581 10.1041 4.36255 10.1964 4.06213C10.2821 3.783 10.2821 3.46275 10.2812 3.09788V2.93338C10.2821 2.5685 10.2821 2.24825 10.1964 1.96913C10.1041 1.6687 9.93963 1.39544 9.7174 1.17321C9.49517 0.950976 9.22191 0.786537 8.92148 0.69425C8.64235 0.6085 8.3221 0.609375 7.95723 0.609375H6.12498ZM5.46435 1.949C5.52823 1.92888 5.62973 1.92188 6.12498 1.92188H7.87498L8.5356 1.949C8.6313 1.97835 8.71835 2.0307 8.78912 2.10148C8.8599 2.17226 8.91226 2.2593 8.9416 2.355C8.96085 2.41888 8.96873 2.52038 8.96873 3.01563L8.9416 3.67625C8.91226 3.77195 8.8599 3.85899 8.78912 3.92977C8.71835 4.00055 8.6313 4.0529 8.5356 4.08225C8.47173 4.10238 8.37023 4.10938 7.87498 4.10938H6.12498C5.62885 4.10938 5.52823 4.10238 5.46435 4.08225C5.36866 4.0529 5.28161 4.00055 5.21083 3.92977C5.14006 3.85899 5.0877 3.77195 5.05835 3.67625C5.03823 3.61238 5.03123 3.51175 5.03123 3.01563L5.05835 2.355C5.0877 2.2593 5.14006 2.17226 5.21083 2.10148C5.28161 2.0307 5.36866 1.97835 5.46435 1.949ZM2.40623 3.01563C2.40623 2.69625 2.0361 2.4425 1.83398 2.69013C1.68625 2.87155 1.55808 3.06805 1.4516 3.27638C1.25385 3.66488 1.17073 4.08488 1.13223 4.5635C1.0946 5.02813 1.0946 5.60213 1.0946 6.31263V9.34363L1.13223 11.0927C1.1716 11.5714 1.25385 11.9914 1.4516 12.3799C1.7662 12.9974 2.26824 13.4994 2.88573 13.814C3.27423 14.0117 3.69423 14.0949 4.17285 14.1334C4.63748 14.171 5.21148 14.171 5.92198 14.171H8.07798L9.8271 14.1334C10.3057 14.094 10.7257 14.0117 11.1142 13.814C11.7317 13.4994 12.2338 12.9974 12.5484 12.3799C12.7461 11.9914 12.8292 11.5714 12.8677 11.0927C12.9054 10.6281 12.9054 10.0541 12.9054 9.34363V6.31263L12.8677 4.5635C12.8284 4.08488 12.7461 3.66488 12.5484 3.27638C12.4419 3.06805 12.3137 2.87155 12.166 2.69013C11.9639 2.4425 11.5937 2.69625 11.5937 3.01563V9.31563L11.5605 10.986C11.5281 11.3833 11.4677 11.6116 11.3794 11.784C11.1906 12.1543 10.8895 12.4554 10.5192 12.6441C10.3469 12.7325 10.1185 12.7929 9.72123 12.8253C9.3161 12.8585 8.79635 12.8585 8.05085 12.8585H5.94998C5.20448 12.8585 4.68385 12.8585 4.2796 12.8253C3.88235 12.7929 3.65398 12.7325 3.4816 12.6441C3.11129 12.4554 2.81021 12.1543 2.62148 11.784C2.5331 11.6108 2.47273 11.3833 2.44035 10.986C2.4071 10.5809 2.4071 10.0611 2.4071 9.31563L2.40623 3.01563Z" fill="white"/>
</svg>
