<svg width="24" height="24" viewBox="0 0 24 24" fill="none" xmlns="http://www.w3.org/2000/svg">
<path d="M12.0805 1.93945C6.73546 1.93945 2.39746 6.27745 2.39746 11.6225C2.39746 16.9675 6.73546 21.3055 12.0805 21.3055C17.4255 21.3055 21.7635 16.9675 21.7635 11.6225C21.7635 6.27745 17.4255 1.93945 12.0805 1.93945ZM13.4458 17.5194V18.0811C13.4458 18.7879 12.8648 19.3689 12.1579 19.3689H12.1483C11.4414 19.3689 10.8604 18.7879 10.8604 18.0811V17.5001C9.57258 17.2289 8.42998 16.5221 7.94583 15.3311C7.72312 14.7985 8.13949 14.2078 8.72047 14.2078H8.95287C9.31114 14.2078 9.60163 14.4499 9.73719 14.7888C10.018 15.5151 10.7539 16.0186 12.1676 16.0186C14.0655 16.0186 14.4916 15.0696 14.4916 14.479C14.4916 13.6753 14.0655 12.92 11.9062 12.4068C9.5048 11.8258 7.85869 10.8382 7.85869 8.85313C7.85869 7.18765 9.20463 6.10315 10.8701 5.74488V5.1639C10.8701 4.45704 11.4511 3.87606 12.1579 3.87606H12.1676C12.8745 3.87606 13.4555 4.45704 13.4555 5.1639V5.76425C14.7917 6.09347 15.6342 6.92621 16.0021 7.95261C16.1958 8.48518 15.7891 9.04679 15.2178 9.04679H14.966C14.6078 9.04679 14.3173 8.79503 14.2204 8.44644C13.9977 7.71053 13.3877 7.23607 12.1676 7.23607C10.7152 7.23607 9.8437 7.89451 9.8437 8.82408C9.8437 9.63746 10.4731 10.17 12.4291 10.6735C14.385 11.1771 16.4766 12.0195 16.4766 14.4596C16.4572 16.2316 15.1306 17.1999 13.4458 17.5194Z" fill="white" fill-opacity="0.7"/>
</svg>
