<svg width="32" height="32" viewBox="0 0 32 32" fill="none" xmlns="http://www.w3.org/2000/svg">
<path fill-rule="evenodd" clip-rule="evenodd" d="M16 0C7.16344 0 0 7.16344 0 16C0 24.8366 7.16344 32 16 32C24.8366 32 32 24.8366 32 16C32 7.16344 24.8366 0 16 0ZM9.93676 6.93327H22.5966C23.6642 6.93327 24.5333 7.79194 24.5333 8.85594V25.5999L22.5021 23.8266L21.3589 22.7813L20.1496 21.6706L20.6504 23.3973H9.93676C8.86918 23.3973 8 22.5386 8 21.4746V8.85594C8 7.79194 8.86918 6.93327 9.93676 6.93327Z" fill="white"/>
<path fill-rule="evenodd" clip-rule="evenodd" d="M18.9505 19.1233C18.9505 19.1233 18.6104 18.7219 18.3269 18.3673C19.5646 18.0219 20.037 17.2566 20.037 17.2566C19.6496 17.5086 19.2812 17.6859 18.9505 17.8073C18.4781 18.0033 18.0246 18.1339 17.5806 18.2086C16.6736 18.3766 15.8422 18.3299 15.1337 18.1993C14.5951 18.0966 14.1322 17.9473 13.7449 17.7979C13.5276 17.7139 13.2914 17.6113 13.0552 17.4806C13.041 17.4713 13.0268 17.4643 13.0127 17.4573C12.9985 17.4503 12.9843 17.4433 12.9701 17.4339C12.9513 17.4246 12.9418 17.4153 12.9324 17.4059C12.7623 17.3126 12.6678 17.2473 12.6678 17.2473C12.6678 17.2473 13.1213 17.9939 14.3212 18.3486C14.0377 18.7033 13.6882 19.1233 13.6882 19.1233C11.6002 19.0579 10.8066 17.7046 10.8066 17.7046C10.8066 14.6993 12.1671 12.2633 12.1671 12.2633C13.5276 11.2553 14.8219 11.2833 14.8219 11.2833L14.9164 11.3953C13.2158 11.8806 12.4316 12.6179 12.4316 12.6179C12.4316 12.6179 12.6395 12.5059 12.989 12.3473C13.9999 11.9086 14.803 11.7873 15.1337 11.7593L15.1548 11.7557C15.2025 11.7477 15.2448 11.7406 15.2943 11.7406C15.8706 11.6659 16.5225 11.6473 17.2027 11.7219C18.1002 11.8246 19.0639 12.0859 20.0464 12.6179C20.0464 12.6179 19.3001 11.9179 17.694 11.4326L17.8262 11.2833C17.8262 11.2833 19.1205 11.2553 20.481 12.2633C20.481 12.2633 21.8415 14.6993 21.8415 17.7046C21.8415 17.7046 21.0384 19.0579 18.9505 19.1233ZM14.8233 14.9339C14.289 14.9339 13.8672 15.4144 13.8672 16.0006C13.8672 16.5868 14.2984 17.0673 14.8233 17.0673C15.3575 17.0673 15.7793 16.5868 15.7793 16.0006C15.7887 15.4144 15.3575 14.9339 14.8233 14.9339ZM17.2884 16.0006C17.2884 15.4144 17.7102 14.9339 18.2445 14.9339C18.7787 14.9339 19.2005 15.4144 19.2005 16.0006C19.2005 16.5868 18.7787 17.0673 18.2445 17.0673C17.7196 17.0673 17.2884 16.5868 17.2884 16.0006Z" fill="white"/>
</svg>
