<svg width="32" height="32" viewBox="0 0 32 32" fill="none" xmlns="http://www.w3.org/2000/svg">
<path fill-rule="evenodd" clip-rule="evenodd" d="M32 16C32 24.8366 24.8366 32 16 32C7.16344 32 0 24.8366 0 16C0 7.16344 7.16344 0 16 0C24.8366 0 32 7.16344 32 16ZM10.7146 14.5343C9.11181 15.2341 7.46496 15.9531 5.95908 16.7826L5.95897 16.7827C5.17265 17.3584 6.21783 17.7656 7.19828 18.1476C7.35415 18.2083 7.50839 18.2684 7.65337 18.3284C7.77402 18.3655 7.89671 18.4046 8.02104 18.4442C9.11148 18.7916 10.3274 19.179 11.386 18.5962C13.1251 17.5973 14.7662 16.4423 16.4061 15.2882C16.9434 14.9101 17.4806 14.5321 18.021 14.1597C18.0463 14.1435 18.0749 14.125 18.1061 14.1048C18.5665 13.8063 19.6018 13.1352 19.2189 14.06C18.3132 15.0504 17.3432 15.9271 16.3679 16.8086C15.7106 17.4026 15.0509 17.9989 14.4069 18.6336C13.8459 19.0893 13.2635 20.0058 13.8916 20.644C15.3382 21.6567 16.8074 22.6448 18.2757 23.6324C18.7535 23.9538 19.2313 24.2751 19.7081 24.5972C20.5163 25.2424 21.7793 24.7205 21.9569 23.7122C22.0359 23.2484 22.1153 22.7846 22.1946 22.3208C22.633 19.7577 23.0715 17.1937 23.4589 14.6222C23.5116 14.2189 23.5713 13.8155 23.631 13.412C23.7757 12.4339 23.9206 11.4546 23.9659 10.4713C23.8492 9.49001 22.6594 9.70577 21.9972 9.92642C18.5937 11.2215 15.2243 12.6126 11.8681 14.0282C11.488 14.1966 11.1026 14.3649 10.7146 14.5343Z" fill="white"/>
</svg>
