<svg width="36" height="36" viewBox="0 0 36 36" fill="none" xmlns="http://www.w3.org/2000/svg">
<path fill-rule="evenodd" clip-rule="evenodd" d="M18 0C8.05887 0 0 8.05887 0 18C0 27.9411 8.05887 36 18 36C27.9411 36 36 27.9411 36 18C36 8.05887 27.9411 0 18 0ZM17.4987 15.2534L17.4609 14.6306C17.3476 13.0163 18.3422 11.5418 19.9161 10.9698C20.4952 10.7664 21.4773 10.741 22.1194 10.9189C22.3712 10.9952 22.8497 11.2494 23.1896 11.4782L23.8066 11.8977L24.4865 11.6816C24.8642 11.5672 25.3678 11.3765 25.5944 11.2494C25.8085 11.135 25.9973 11.0715 25.9973 11.1096C25.9973 11.3257 25.5315 12.0629 25.1412 12.4697C24.6124 13.0417 24.7635 13.0925 25.8337 12.7112C26.4758 12.4951 26.4884 12.4951 26.3625 12.7366C26.2869 12.8637 25.8966 13.3086 25.4811 13.7154C24.7761 14.4145 24.7383 14.4907 24.7383 15.0754C24.7383 15.9779 24.3102 17.8592 23.8821 18.8887C23.0889 20.8208 21.3892 22.8165 19.6894 23.8206C17.2972 25.2316 14.1118 25.5875 11.43 24.7612C10.5361 24.4816 9 23.7698 9 23.6427C9 23.6045 9.46585 23.5537 10.0324 23.541C11.216 23.5156 12.3995 23.1851 13.4067 22.6004L14.0866 22.1936L13.306 21.9267C12.198 21.5454 11.2034 20.6683 10.9515 19.8421C10.876 19.5751 10.9012 19.5624 11.6063 19.5624L12.3365 19.5497L11.7196 19.2574C10.9893 18.8887 10.322 18.2659 9.99466 17.6304C9.75544 17.1728 9.45326 16.0161 9.5414 15.9271C9.56658 15.8889 9.83098 15.9652 10.1332 16.0669C11.0019 16.3847 11.1152 16.3084 10.6116 15.7745C9.6673 14.8085 9.37772 13.3722 9.83098 12.0121L10.045 11.4019L10.876 12.2282C12.5757 13.8933 14.5776 14.8848 16.8691 15.1771L17.4987 15.2534Z" fill="white"/>
</svg>
