<svg width="120" height="120" viewBox="0 0 120 120" fill="none" xmlns="http://www.w3.org/2000/svg">
<path d="M92.5867 27.3789C94.6885 29.4808 97.4857 30.6502 100.472 30.6502C103.459 30.6502 106.241 29.4966 108.358 27.3789C110.46 25.2771 111.629 22.48 111.629 19.4932C111.629 16.5064 110.476 13.725 108.358 11.6074C104.613 7.86206 98.7025 7.27734 94.2934 10.2167L93.7877 10.5644L93.2662 10.2325C91.3857 9.03149 84.7958 4.97009 78.9486 3.05791C66.8908 -1.0193 53.0789 -1.0193 41.0211 3.05791C40.3257 3.29495 39.7568 3.78485 39.4408 4.44858C39.1089 5.11231 39.0615 5.85506 39.2985 6.5504C39.7884 7.98848 41.3372 8.76284 42.7752 8.27294C48.3221 6.39237 54.1377 5.45998 59.969 5.45998C65.8004 5.45998 71.6476 6.40817 77.2103 8.28874C82.0302 9.86906 87.5297 13.1403 89.6789 14.4836L90.3269 14.8945L90.0582 15.6056C88.5253 19.6986 89.5209 24.3131 92.5867 27.3789Z" fill="white"/>
<path d="M26.0589 109.507L26.5646 109.807C30.7682 112.351 36.8682 115.528 41.0403 116.903C47.1245 118.957 53.4931 120 60.004 120C66.5149 120 72.8836 118.957 78.952 116.903C79.6473 116.666 80.2162 116.176 80.5323 115.512C80.8642 114.848 80.9116 114.106 80.6745 113.41C80.1846 111.972 78.6201 111.214 77.1978 111.688C66.104 115.433 53.8724 115.433 42.7628 111.688C39.1123 110.487 33.755 107.674 30.2783 105.635L29.5988 105.224L29.8832 104.481C31.4636 100.357 30.4838 95.6949 27.3863 92.5817C23.0405 88.2358 15.9765 88.2358 11.6306 92.5817C9.52881 94.6835 8.35938 97.4806 8.35938 100.467C8.35938 103.454 9.513 106.236 11.6306 108.337C15.3286 112.035 21.1915 112.652 25.569 109.807L26.0589 109.491V109.507Z" fill="white"/>
<path d="M116.899 41.0514C116.662 40.356 116.172 39.7871 115.509 39.4711C114.861 39.155 114.118 39.1076 113.423 39.3446C111.985 39.8345 111.21 41.3832 111.7 42.8213C113.565 48.3208 114.497 54.1048 114.497 60.0151C114.497 65.9255 113.549 71.7253 111.684 77.2405C110.547 80.7014 108.208 85.7584 105.853 89.7882L105.442 90.4994L104.684 90.1833C103.309 89.6144 101.871 89.3457 100.448 89.3457C97.5564 89.3457 94.7118 90.4836 92.5784 92.617C90.4766 94.7188 89.3071 97.516 89.3071 100.503C89.3071 103.49 90.4608 106.271 92.5784 108.373C94.6802 110.475 97.4774 111.644 100.464 111.644C103.451 111.644 106.232 110.49 108.35 108.373C112 104.722 112.648 99.0963 109.946 94.6872L109.646 94.1973L109.946 93.7074C112.648 89.2825 115.509 83.2299 116.899 78.9789C118.954 72.9105 119.997 66.526 119.997 60.0151C119.997 53.5042 118.954 47.1198 116.899 41.0672V41.0514Z" fill="white"/>
<path d="M27.3868 11.6228C25.285 9.52099 22.4879 8.35156 19.5011 8.35156C16.5143 8.35156 13.7329 9.50519 11.6311 11.6228C7.93317 15.3049 7.31685 21.1679 10.1614 25.5454L10.4775 26.0353L10.1772 26.541C7.64872 30.6972 4.48809 36.7972 3.09741 41.0324C1.04301 47.1009 0 53.4695 0 59.9962C0 66.5229 1.04301 72.8916 3.09741 78.9442C3.57151 80.3348 5.10441 81.1566 6.58991 80.6667C8.01219 80.1768 8.78654 78.6281 8.29665 77.19C6.43188 71.7063 5.49949 65.9066 5.49949 59.9962C5.49949 54.0858 6.44768 48.2861 8.31245 42.7708C9.52929 39.0571 12.3264 33.7314 14.3492 30.2863L14.7601 29.6068L15.5029 29.8912C19.6275 31.4874 24.2894 30.5076 27.4026 27.3943C31.7485 23.0485 31.7485 15.9845 27.4026 11.6386L27.3868 11.6228Z" fill="white"/>
<path d="M35.3203 56.873H31.3262V68.3086H28.1621V56.873H24.1875V54.3047H35.3203V56.873ZM43.5235 68.3086H40.6035V66.873H40.5645C39.8939 67.9928 38.9011 68.5527 37.586 68.5527C36.6159 68.5527 35.8509 68.2793 35.291 67.7324C34.7376 67.179 34.461 66.4434 34.461 65.5254C34.461 63.5853 35.61 62.4655 37.9082 62.166L40.6231 61.8047C40.6231 60.7109 40.0306 60.1641 38.8457 60.1641C37.6543 60.1641 36.5215 60.5189 35.4473 61.2285V58.9043C35.877 58.6829 36.4629 58.4876 37.2051 58.3184C37.9538 58.1491 38.6341 58.0645 39.2461 58.0645C42.0977 58.0645 43.5235 59.487 43.5235 62.332V68.3086ZM40.6231 64.2461V63.5723L38.8067 63.8066C37.8041 63.9368 37.3027 64.3893 37.3027 65.1641C37.3027 65.5156 37.4232 65.8053 37.6641 66.0332C37.9115 66.2546 38.2435 66.3652 38.6602 66.3652C39.2396 66.3652 39.7116 66.1667 40.0762 65.7695C40.4408 65.3659 40.6231 64.8581 40.6231 64.2461ZM53.8848 68.3086H44.9102V67.0293L49.9297 60.584H45.4082V58.3086H53.8457V59.832L49.0899 66.0332H53.8848V68.3086ZM65.5742 68.3086H61.8731L58.6797 63.3477H58.6406V68.3086H55.5547V53.5039H58.6406V62.9277H58.6797L61.6582 58.3086H65.3203L61.7363 63.0059L65.5742 68.3086ZM71.2188 68.5527C69.5521 68.5527 68.2402 68.0872 67.2832 67.1562C66.3327 66.2188 65.8574 64.9492 65.8574 63.3477C65.8574 61.694 66.3522 60.4017 67.3418 59.4707C68.3314 58.5332 69.6693 58.0645 71.3555 58.0645C73.0156 58.0645 74.3177 58.5332 75.2617 59.4707C76.2057 60.4017 76.6777 61.6354 76.6777 63.1719C76.6777 64.832 76.1895 66.1439 75.2129 67.1074C74.2429 68.071 72.9115 68.5527 71.2188 68.5527ZM71.2969 60.4277C70.5677 60.4277 70.0013 60.6784 69.5977 61.1797C69.194 61.681 68.9922 62.3906 68.9922 63.3086C68.9922 65.2292 69.7669 66.1895 71.3164 66.1895C72.7943 66.1895 73.5332 65.2031 73.5332 63.2305C73.5332 61.362 72.7878 60.4277 71.2969 60.4277ZM85.2031 61.0918C84.832 60.89 84.3991 60.7891 83.9043 60.7891C83.2337 60.7891 82.7097 61.0365 82.332 61.5312C81.9544 62.0195 81.7656 62.6868 81.7656 63.5332V68.3086H78.6797V58.3086H81.7656V60.1641H81.8047C82.293 58.8099 83.1719 58.1328 84.4414 58.1328C84.7669 58.1328 85.0208 58.1719 85.2031 58.25V61.0918ZM94.9688 68.3086H92.0488V66.873H92.0098C91.3392 67.9928 90.3464 68.5527 89.0313 68.5527C88.0612 68.5527 87.2962 68.2793 86.7363 67.7324C86.183 67.179 85.9063 66.4434 85.9063 65.5254C85.9063 63.5853 87.0554 62.4655 89.3535 62.166L92.0684 61.8047C92.0684 60.7109 91.4759 60.1641 90.291 60.1641C89.0996 60.1641 87.9668 60.5189 86.8926 61.2285V58.9043C87.3223 58.6829 87.9082 58.4876 88.6504 58.3184C89.3991 58.1491 90.0794 58.0645 90.6914 58.0645C93.543 58.0645 94.9688 59.487 94.9688 62.332V68.3086ZM92.0684 64.2461V63.5723L90.252 63.8066C89.2494 63.9368 88.7481 64.3893 88.7481 65.1641C88.7481 65.5156 88.8685 65.8053 89.1094 66.0332C89.3568 66.2546 89.6888 66.3652 90.1055 66.3652C90.6849 66.3652 91.1569 66.1667 91.5215 65.7695C91.8861 65.3659 92.0684 64.8581 92.0684 64.2461Z" fill="white"/>
</svg>
