<svg width="120" height="120" viewBox="0 0 120 120" fill="none" xmlns="http://www.w3.org/2000/svg">
<path d="M93.9408 13.8687H76.4726C72.7908 13.8687 69.409 15.1232 66.709 17.2232H78.0135C92.209 17.2232 103.759 28.7732 103.759 42.9687V59.8368C107.482 56.9186 109.882 52.3914 109.882 47.2914V29.8232C109.882 21.0141 102.736 13.8687 93.9272 13.8687H93.9408Z" fill="white"/>
<path d="M78.218 23.9727H56.1952C51.9407 23.9727 48.0407 25.4317 44.918 27.859H56.3316C78.1907 27.859 88.3634 38.0454 88.3634 59.8908V79.7181C93.3271 76.4181 96.5998 70.7863 96.5998 64.3908V42.3681C96.5998 32.209 88.3634 23.9727 78.2043 23.9727H78.218Z" fill="white"/>
<path d="M56.3464 34.9771H35.0055C17.2237 34.9771 10.1055 42.0952 10.1055 59.8771V81.218C10.1055 98.9998 17.2237 106.118 35.0055 106.118H56.3464C74.1282 106.118 81.2464 98.9998 81.2464 81.218V59.8771C81.2464 42.0952 74.1282 34.9771 56.3464 34.9771ZM62.4009 63.6952L43.5418 82.5543C42.8327 83.2634 41.9191 83.618 40.9509 83.618C39.9827 83.618 39.0691 83.2634 38.36 82.5543L28.91 73.1043C27.4918 71.6861 27.4918 69.3952 28.91 67.9771C29.6191 67.268 30.5464 66.9134 31.4736 66.9134C32.4009 66.9134 33.3282 67.268 34.0373 67.9771L40.8964 74.8361L57.2055 58.527C57.9146 57.818 58.8418 57.4634 59.7691 57.4634C60.6964 57.4634 61.6236 57.818 62.3327 58.527C63.7509 59.9452 63.8055 62.2907 62.3873 63.7089L62.4009 63.6952Z" fill="white"/>
</svg>
