<svg width="120" height="120" viewBox="0 0 120 120" fill="none" xmlns="http://www.w3.org/2000/svg">
<path d="M103.963 66.2451H97.5679C96.4224 66.2451 95.3588 66.6678 94.5952 67.4724C93.7497 68.3178 93.2452 69.5451 93.3679 70.8678C93.5315 73.0769 95.577 74.7269 97.8134 74.7269H104.004C105.191 74.686 106.077 73.7587 106.077 72.6133V68.3724C106.077 67.2269 105.191 66.2997 103.963 66.2588V66.2451Z" fill="white"/>
<path d="M26.6319 42.9814V40.1451C26.6319 37.7314 28.0773 35.6042 30.3137 34.7587L69.2046 22.0905C69.4228 22.0087 69.6273 21.9678 69.8455 21.9678C70.5273 21.9678 71.5364 22.5132 71.5364 23.6587V39.7632H77.8909V23.6587C77.8909 19.036 74.0728 15.5996 69.8319 15.5996C68.9046 15.5996 67.9228 15.7632 66.9955 16.1042L28.0637 28.8132C23.3591 30.5996 20.2637 35.086 20.2637 40.1314V63.2314C20.2637 64.8405 21.9546 65.8632 23.4819 65.3451C25.8546 64.5405 28.35 64.1178 30.8591 64.1178C43.7046 64.1178 54.1637 74.5905 54.1637 87.4223C54.1637 90.4769 53.3591 93.8178 52.0909 96.7905C51.4091 98.3178 52.4728 100.145 54.1228 100.145H90.1228C98.8909 100.145 106.064 92.986 106.064 84.2042V83.3996C106.064 81.0678 104.155 79.1587 101.823 79.1587H98.1409C94.0773 79.1587 90.1773 76.6632 89.1137 72.7223C88.2682 69.5042 89.2773 66.3678 91.4046 64.336C92.9728 62.7269 95.1273 61.7996 97.5137 61.7996H101.836C104.168 61.7996 106.077 59.8905 106.077 57.5587V55.6905C106.077 46.9223 98.9182 39.7496 90.1364 39.7496H77.8909H71.5364H36.2046C32.6046 39.7496 29.2909 40.936 26.6319 42.9678M74.2909 60.9542H47.8228C46.0909 60.9542 44.6455 59.5087 44.6455 57.7769C44.6455 56.0451 46.0909 54.5996 47.8228 54.5996H74.2909C76.0228 54.5996 77.4682 56.0451 77.4682 57.7769C77.4682 59.5087 76.0228 60.9542 74.2909 60.9542Z" fill="white"/>
<path d="M30.8738 70.4858C26.892 70.4858 23.1966 71.8904 20.2784 74.2086C16.3784 77.304 13.9238 82.0904 13.9238 87.4358C13.9238 90.6131 14.8102 93.6267 16.3784 96.1631C19.2966 101.086 24.6829 104.386 30.8738 104.386C35.1556 104.386 39.0556 102.818 42.0147 100.145C43.3238 99.0404 44.4693 97.6904 45.3693 96.1631C46.9375 93.6267 47.8238 90.6131 47.8238 87.4358C47.8238 78.0677 40.242 70.4858 30.8738 70.4858ZM40.1329 85.554L31.2011 94.4722C30.7375 94.9358 30.1375 95.1813 29.4829 95.1813C28.8284 95.1813 28.2147 94.9222 27.7647 94.4722L23.292 89.9995C22.8284 89.5358 22.5829 88.9358 22.5829 88.2813C22.5829 87.6267 22.842 87.0267 23.292 86.5631C24.2329 85.6222 25.7738 85.6222 26.7147 86.5631L29.4693 89.3177L36.6966 82.0904C37.6375 81.1495 39.1784 81.1495 40.1193 82.0904C41.0738 83.0449 41.0875 84.5995 40.1466 85.5404L40.1329 85.554Z" fill="white"/>
</svg>
