<svg width="61" height="58" viewBox="0 0 61 58" fill="none" xmlns="http://www.w3.org/2000/svg">
<circle cx="30.5003" cy="28.3177" r="27.22" fill="black" stroke="url(#paint0_linear_514_2708)" stroke-width="1.6758"/>
<path fill-rule="evenodd" clip-rule="evenodd" d="M29.0711 5.91136C23.0356 6.38798 18.1138 8.7241 14.1162 13.0097C10.9548 16.3988 8.98038 20.4972 8.32474 25.0315C7.95623 27.5803 7.96241 29.2375 8.35001 31.8077C8.93192 35.6662 10.5347 39.3546 12.9146 42.3121C13.4951 43.0335 14.9439 44.563 15.6621 45.2127C17.7651 47.1149 20.5018 48.6951 23.3321 49.6416C24.7547 50.1173 26.7787 50.6053 26.9891 50.5234C27.0648 50.494 27.0779 50.2528 27.0779 48.8952C27.0779 47.4665 27.0672 47.2884 26.9739 47.1736C26.8987 47.0811 26.6469 46.9883 26.0671 46.8395C24.3407 46.3964 23.2077 45.9704 21.8159 45.2412C20.7015 44.6573 19.3136 43.7465 18.6023 43.1322C18.5026 43.0461 18.3027 42.8806 18.1581 42.7645C17.7064 42.4019 16.5031 41.1933 15.9635 40.5602C13.8333 38.0614 12.4243 35.0042 11.8228 31.5758C11.6036 30.3266 11.5441 29.6221 11.5449 28.2886C11.5466 25.8214 11.9223 23.8061 12.8122 21.4926C13.7374 19.0869 15.0511 17.0416 16.9063 15.1185C19.3716 12.5628 22.4414 10.799 26.0049 9.89068C26.5117 9.76149 28.4739 9.40948 28.6872 9.40948C28.8006 9.40948 28.8022 9.6847 28.8022 30.0667V50.724L28.9657 50.7704C29.1787 50.8308 31.8742 50.8308 32.0872 50.7704L32.2507 50.724V30.1252C32.2507 11.4959 32.2596 9.52287 32.3437 9.49012C32.4665 9.44235 33.915 9.62644 34.629 9.78061C37.3574 10.3695 40.059 11.6475 42.3007 13.4094C43.0531 14.0007 43.3303 14.2518 44.1473 15.0821C46.3775 17.3484 47.9165 20.0115 48.803 23.1381C49.6525 26.1343 49.7644 29.2935 49.1285 32.3298C48.1828 36.8451 45.5469 40.9152 41.7639 43.7013C39.7921 45.1535 37.4812 46.2281 34.9799 46.8559L34.0641 47.0858L34.0483 48.7869C34.0358 50.1429 34.0483 50.4943 34.1102 50.5183C34.153 50.535 34.4544 50.4953 34.7801 50.4301C36.5992 50.0661 37.9582 49.645 39.6828 48.9111C40.2751 48.6591 41.9016 47.7955 42.5071 47.4116C43.1041 47.0331 44.1619 46.2844 44.4394 46.044C44.5212 45.9731 44.7887 45.7474 45.034 45.5423C45.2793 45.3372 45.7974 44.8522 46.1853 44.4645C49.5294 41.123 51.7627 37.0846 52.579 32.9028C52.7859 31.843 52.8208 31.5964 52.9116 30.5504C53.107 28.3004 52.9737 26.0911 52.4965 23.6743C52.132 21.8281 51.5599 20.1087 50.7704 18.4871C50.2105 17.3371 50.0022 16.9667 49.4152 16.0767C48.0655 14.0308 46.5285 12.3684 44.4799 10.7393C43.9719 10.3353 42.5055 9.28885 42.4473 9.28885C42.4249 9.28885 42.3355 9.23764 42.2487 9.17509C41.9215 8.93925 40.9927 8.4192 40.2252 8.04216C38.1264 7.01105 35.9012 6.33979 33.5588 6.03103C32.4503 5.88494 30.174 5.82426 29.0711 5.91136ZM26.2158 11.5872C25.546 11.7559 24.8262 11.9942 23.9267 12.3451C23.3924 12.5535 21.9154 13.3114 21.3351 13.6749C20.0313 14.4915 18.4566 15.8551 17.4139 17.0703C17.0294 17.5184 15.9 19.0734 15.9 19.1546C15.9 19.1668 15.7951 19.3412 15.667 19.5423C15.0698 20.4798 14.2027 22.5592 13.8561 23.8854C13.4454 25.4566 13.3207 26.4863 13.319 28.3187C13.3174 29.9428 13.3779 30.6112 13.6409 31.8774C14.4076 35.5692 16.3699 38.9305 19.2296 41.4503C19.7855 41.9401 20.6188 42.5474 20.6413 42.4791C20.6506 42.4509 20.6645 39.5655 20.6722 36.0669L20.6863 29.706L22.574 29.6901L24.4618 29.6741V37.0866C24.4618 42.9433 24.4774 44.5119 24.5361 44.5607C24.6835 44.6833 26.4545 45.2057 26.8698 45.249L27.0482 45.2677L27.0241 36.2353C27.006 29.4324 27.017 27.2029 27.0687 27.2029C27.2684 27.2029 27.0699 27.07 26.4982 26.8212C26.1466 26.6681 25.5781 26.417 25.2347 26.2631C24.8914 26.1093 24.4383 25.9103 24.2279 25.8209C24.0175 25.7316 23.8371 25.6328 23.827 25.6013C23.8069 25.5388 24.0839 25.3847 25.8444 24.4788C26.7316 24.0224 27.0265 23.8426 27.0499 23.7442C27.1103 23.4901 27.0505 11.4408 26.9887 11.4238C26.956 11.4149 26.6082 11.4884 26.2158 11.5872ZM33.8232 11.4768C33.8076 11.518 33.802 12.4454 33.8106 13.5377L33.8263 15.5238L34.4506 15.6533C34.794 15.7246 35.2202 15.8282 35.3979 15.8834C35.9571 16.0576 35.937 16.0784 35.937 15.3241C35.937 14.9611 35.9605 14.6494 35.9891 14.6315C36.0781 14.5757 36.8808 14.8895 37.7505 15.3202C39.8652 16.3673 41.6759 18.0005 43.0485 20.099C43.4868 20.769 44.1741 22.114 44.443 22.8279C44.8755 23.9761 45.2705 25.6272 45.3633 26.6748L45.4047 27.1419L40.1803 27.1573L34.956 27.1727V28.4092V29.6457L40.1734 29.6611L45.3907 29.6765V29.9023C45.3907 30.2667 45.1628 31.582 44.9754 32.2996C44.3928 34.5301 43.4087 36.4591 41.975 38.1805C41.77 38.4267 40.6167 39.5897 40.3623 39.8068C39.6586 40.4074 38.4759 41.1774 37.6316 41.5848C37.1139 41.8345 36.1306 42.2209 36.0114 42.2214C35.9564 42.2216 35.937 42.0497 35.937 41.5618C35.937 41.1988 35.915 40.888 35.888 40.8711C35.8611 40.8542 35.4396 40.9369 34.9515 41.0549C34.4635 41.1728 34.0036 41.2806 33.9295 41.2945L33.795 41.3196L33.8106 43.2936L33.8263 45.2677L34.1236 45.2532C34.6671 45.2268 36.0285 44.925 36.8203 44.6554C38.8638 43.9595 40.7321 42.8458 42.3198 41.3772C43.8853 39.929 45.0731 38.3068 46.0844 36.2352C46.2261 35.9449 46.3421 35.6946 46.3421 35.679C46.3421 35.6633 46.4075 35.5072 46.4875 35.3321C47.2707 33.6184 47.8264 30.7604 47.8277 28.4393C47.8296 25.2366 47.0542 22.2602 45.4786 19.422C45.27 19.0464 44.4849 17.8395 44.3538 17.693C44.3191 17.6543 44.1436 17.4322 43.9638 17.1995C43.6386 16.7787 42.4207 15.5231 41.853 15.0233C41.4481 14.6669 40.5399 14.0156 39.8843 13.6116C38.4936 12.7545 37.3943 12.3102 35.2533 11.74C34.0003 11.4063 33.8597 11.3804 33.8232 11.4768Z" fill="url(#paint1_linear_514_2708)"/>
<defs>
<linearGradient id="paint0_linear_514_2708" x1="6.49519" y1="20.2121" x2="35.1766" y2="56.3756" gradientUnits="userSpaceOnUse">
<stop stop-color="#FF8A00"/>
<stop offset="1" stop-color="#FB2B04"/>
</linearGradient>
<linearGradient id="paint1_linear_514_2708" x1="30.526" y1="5.87109" x2="30.526" y2="50.8157" gradientUnits="userSpaceOnUse">
<stop offset="0.045" stop-color="#FF1405"/>
<stop offset="0.865" stop-color="#FF8A00" stop-opacity="0.92"/>
<stop offset="1" stop-color="#FF8A00" stop-opacity="0.92"/>
</linearGradient>
</defs>
</svg>
