<svg width="321" height="69" viewBox="0 0 321 69" fill="none" xmlns="http://www.w3.org/2000/svg">
<path d="M50.4874 15.2318H32.43V66.9316H18.1253V15.2318H0.15625V3.62031H50.4874V15.2318Z" fill="white"/>
<path d="M87.5735 66.9316H74.3726V60.4415H74.196C71.1643 65.504 66.6758 68.0353 60.7302 68.0353C56.3446 68.0353 52.8862 66.7991 50.3549 64.3267C47.8531 61.8249 46.6022 58.4989 46.6022 54.3488C46.6022 45.5776 51.7972 40.5151 62.1872 39.1611L74.4609 37.5276C74.4609 32.5828 71.7824 30.1104 66.4256 30.1104C61.0393 30.1104 55.9178 31.7145 51.0613 34.9227V24.415C53.0039 23.4143 55.6529 22.5313 59.0084 21.766C62.3932 21.0007 65.469 20.6181 68.2357 20.6181C81.1276 20.6181 87.5735 27.0493 87.5735 39.9117V66.9316ZM74.4609 48.5651V45.5188L66.249 46.5784C61.7162 47.167 59.4499 49.2127 59.4499 52.7152C59.4499 54.3046 59.9944 55.6144 61.0834 56.6446C62.2019 57.6453 63.703 58.1457 65.5867 58.1457C68.2063 58.1457 70.3402 57.248 71.9885 55.4525C73.6368 53.6277 74.4609 51.3319 74.4609 48.5651Z" fill="white"/>
<path d="M134.417 66.9316H93.8428V61.1479L116.536 32.0088H96.0944V21.7219H134.24V28.6093L112.739 56.6446H134.417V66.9316Z" fill="white"/>
<path d="M187.264 66.9316H170.532L156.094 44.5033H155.918V66.9316H141.966V0H155.918V42.6049H156.094L169.56 21.7219H186.117L169.913 42.9581L187.264 66.9316Z" fill="white"/>
<path d="M212.783 68.0353C205.248 68.0353 199.317 65.9308 194.991 61.7219C190.693 57.4834 188.545 51.7439 188.545 44.5033C188.545 37.0272 190.782 31.1847 195.256 26.9757C199.729 22.7373 205.778 20.6181 213.401 20.6181C220.907 20.6181 226.794 22.7373 231.061 26.9757C235.329 31.1847 237.463 36.7623 237.463 43.7086C237.463 51.2141 235.256 57.145 230.841 61.5011C226.455 65.8572 220.436 68.0353 212.783 68.0353ZM213.136 31.3024C209.84 31.3024 207.279 32.4356 205.454 34.702C203.629 36.9684 202.717 40.1766 202.717 44.3267C202.717 53.0096 206.22 57.351 213.225 57.351C219.906 57.351 223.247 52.8918 223.247 43.9735C223.247 35.5261 219.877 31.3024 213.136 31.3024Z" fill="white"/>
<path d="M276.006 34.3046C274.328 33.3922 272.371 32.936 270.134 32.936C267.103 32.936 264.733 34.0544 263.026 36.2914C261.319 38.4989 260.465 41.5158 260.465 45.3422V66.9316H246.514V21.7219H260.465V30.1104H260.642C262.849 23.9882 266.823 20.9272 272.562 20.9272C274.034 20.9272 275.182 21.1038 276.006 21.457V34.3046Z" fill="white"/>
<path d="M320.156 66.9316H306.955V60.4415H306.779C303.747 65.504 299.259 68.0353 293.313 68.0353C288.927 68.0353 285.469 66.7991 282.938 64.3267C280.436 61.8249 279.185 58.4989 279.185 54.3488C279.185 45.5776 284.38 40.5151 294.77 39.1611L307.044 37.5276C307.044 32.5828 304.365 30.1104 299.008 30.1104C293.622 30.1104 288.501 31.7145 283.644 34.9227V24.415C285.587 23.4143 288.236 22.5313 291.591 21.766C294.976 21.0007 298.052 20.6181 300.819 20.6181C313.71 20.6181 320.156 27.0493 320.156 39.9117V66.9316ZM307.044 48.5651V45.5188L298.832 46.5784C294.299 47.167 292.033 49.2127 292.033 52.7152C292.033 54.3046 292.577 55.6144 293.666 56.6446C294.785 57.6453 296.286 58.1457 298.17 58.1457C300.789 58.1457 302.923 57.248 304.571 55.4525C306.22 53.6277 307.044 51.3319 307.044 48.5651Z" fill="white"/>
</svg>
