<svg width="200" height="43" viewBox="0 0 200 43" fill="none" xmlns="http://www.w3.org/2000/svg">
<path d="M32.0527 9.98047H20.8691V42H12.0098V9.98047H0.880859V2.78906H32.0527V9.98047ZM55.0215 42H46.8457V37.9805H46.7363C44.8587 41.1159 42.0788 42.6836 38.3965 42.6836C35.6803 42.6836 33.5384 41.918 31.9707 40.3867C30.4212 38.8372 29.6465 36.7773 29.6465 34.207C29.6465 28.7747 32.8639 25.6393 39.2988 24.8008L46.9004 23.7891C46.9004 20.7266 45.2415 19.1953 41.9238 19.1953C38.5879 19.1953 35.416 20.1888 32.4082 22.1758V15.668C33.6113 15.0482 35.252 14.5013 37.3301 14.0273C39.4264 13.5534 41.3314 13.3164 43.0449 13.3164C51.0293 13.3164 55.0215 17.2995 55.0215 25.2656V42ZM46.9004 30.625V28.7383L41.8145 29.3945C39.0072 29.7591 37.6035 31.026 37.6035 33.1953C37.6035 34.1797 37.9408 34.9909 38.6152 35.6289C39.3079 36.2487 40.2376 36.5586 41.4043 36.5586C43.0267 36.5586 44.3483 36.0026 45.3691 34.8906C46.39 33.7604 46.9004 32.3385 46.9004 30.625ZM84.0332 42H58.9043V38.418L72.959 20.3711H60.2988V14H83.9238V18.2656L70.6074 35.6289H84.0332V42ZM116.764 42H106.4L97.459 28.1094H97.3496V42H88.709V0.546875H97.3496V26.9336H97.459L105.799 14H116.053L106.018 27.1523L116.764 42ZM132.568 42.6836C127.902 42.6836 124.229 41.3802 121.549 38.7734C118.887 36.1484 117.557 32.5938 117.557 28.1094C117.557 23.4792 118.942 19.8607 121.713 17.2539C124.484 14.6289 128.23 13.3164 132.951 13.3164C137.6 13.3164 141.245 14.6289 143.889 17.2539C146.532 19.8607 147.854 23.3151 147.854 27.6172C147.854 32.2656 146.486 35.9388 143.752 38.6367C141.036 41.3346 137.308 42.6836 132.568 42.6836ZM132.787 19.9336C130.745 19.9336 129.16 20.6354 128.029 22.0391C126.899 23.4427 126.334 25.4297 126.334 28C126.334 33.3776 128.503 36.0664 132.842 36.0664C136.98 36.0664 139.049 33.3047 139.049 27.7812C139.049 22.5495 136.962 19.9336 132.787 19.9336ZM171.725 21.793C170.686 21.2279 169.473 20.9453 168.088 20.9453C166.21 20.9453 164.743 21.638 163.686 23.0234C162.628 24.3906 162.1 26.2591 162.1 28.6289V42H153.459V14H162.1V19.1953H162.209C163.576 15.4036 166.037 13.5078 169.592 13.5078C170.503 13.5078 171.214 13.6172 171.725 13.8359V21.793ZM199.068 42H190.893V37.9805H190.783C188.906 41.1159 186.126 42.6836 182.443 42.6836C179.727 42.6836 177.585 41.918 176.018 40.3867C174.468 38.8372 173.693 36.7773 173.693 34.207C173.693 28.7747 176.911 25.6393 183.346 24.8008L190.947 23.7891C190.947 20.7266 189.288 19.1953 185.971 19.1953C182.635 19.1953 179.463 20.1888 176.455 22.1758V15.668C177.658 15.0482 179.299 14.5013 181.377 14.0273C183.473 13.5534 185.378 13.3164 187.092 13.3164C195.076 13.3164 199.068 17.2995 199.068 25.2656V42ZM190.947 30.625V28.7383L185.861 29.3945C183.054 29.7591 181.65 31.026 181.65 33.1953C181.65 34.1797 181.988 34.9909 182.662 35.6289C183.355 36.2487 184.285 36.5586 185.451 36.5586C187.074 36.5586 188.395 36.0026 189.416 34.8906C190.437 33.7604 190.947 32.3385 190.947 30.625Z" fill="black"/>
</svg>
