<svg width="32" height="32" viewBox="0 0 32 32" fill="none" xmlns="http://www.w3.org/2000/svg">
<path fill-rule="evenodd" clip-rule="evenodd" d="M28.7563 15.7844C28.7563 22.8536 23.0254 28.5844 15.9563 28.5844C8.887 28.5844 3.15625 22.8536 3.15625 15.7844C3.15625 8.71514 8.887 2.98438 15.9563 2.98438C23.0254 2.98438 28.7563 8.71514 28.7563 15.7844ZM16.415 12.4339C15.1699 12.9518 12.6817 14.0235 8.95027 15.6493C8.34433 15.8902 8.02692 16.1259 7.99803 16.3565C7.9492 16.746 8.43701 16.8993 9.10129 17.1082C9.19164 17.1366 9.28526 17.1661 9.38125 17.1973C10.0348 17.4098 10.9139 17.6582 11.371 17.6681C11.7855 17.677 12.2482 17.5062 12.7591 17.1554C16.2455 14.802 18.0452 13.6124 18.1582 13.5868C18.2379 13.5688 18.3483 13.546 18.4232 13.6125C18.4981 13.679 18.4907 13.805 18.4827 13.8388C18.4345 14.0448 16.5196 15.825 15.5286 16.7462C15.2197 17.0335 15.0006 17.2372 14.9558 17.2837C14.8555 17.3879 14.7532 17.4866 14.6549 17.5813C14.0478 18.1666 13.5925 18.6056 14.6801 19.3222C15.2028 19.6667 15.621 19.9516 16.0383 20.2358C16.494 20.546 16.9485 20.8555 17.5367 21.2411C17.6864 21.3393 17.8295 21.4413 17.9689 21.5407C18.4992 21.9187 18.9758 22.2584 19.5643 22.2043C19.9063 22.1728 20.2597 21.8511 20.4391 20.8919C20.8631 18.625 21.6967 13.7134 21.8893 11.6894C21.9062 11.5121 21.885 11.2851 21.8679 11.1855C21.8508 11.0859 21.8152 10.944 21.6857 10.8389C21.5323 10.7144 21.2956 10.6882 21.1897 10.6901C20.7083 10.6986 19.9697 10.9554 16.415 12.4339Z" fill="white"/>
</svg>
