<svg width="73" height="72" viewBox="0 0 73 72" fill="none" xmlns="http://www.w3.org/2000/svg">
<g clip-path="url(#clip0_1005_1276)">
<path d="M0.148438 24C0.148438 12.6863 0.148438 7.02944 3.66316 3.51472C7.17788 0 12.8347 0 24.1484 0H48.1484C59.4621 0 65.119 0 68.6337 3.51472C72.1484 7.02944 72.1484 12.6863 72.1484 24V48C72.1484 59.3137 72.1484 64.9706 68.6337 68.4853C65.119 72 59.4621 72 48.1484 72H24.1484C12.8347 72 7.17788 72 3.66316 68.4853C0.148438 64.9706 0.148438 59.3137 0.148438 48V24Z" fill="#F05F87"/>
<path fill-rule="evenodd" clip-rule="evenodd" d="M40.7944 32.7091L50.9345 32.2481L50.9467 32.2605C54.4077 32.1359 55.1241 32.597 55.1484 33.3073L54.2255 44.5844C54.0312 46.5657 53.254 48.4348 51.9667 49.9426C50.728 51.2884 48.9916 52.036 47.1821 51.9987H29.9621C29.5128 51.9987 29.1484 51.6248 29.1484 51.1638V34.5035C29.1484 33.9802 29.3184 33.4693 29.6099 33.0331C31.0428 30.9272 32.3059 28.6967 33.3746 26.379C34.6133 23.812 35.7305 21.1703 36.6898 18.4788C36.8234 18.1299 37.1877 17.918 37.5277 18.0302C39.7743 18.7155 40.6607 19.8495 40.6729 21.2949L40.5152 22.3541L39.2035 30.5285C39.1307 30.7528 39.0821 30.9771 39.0943 31.2138C39.155 32.111 39.9201 32.7839 40.7944 32.7091ZM19.5236 35.124L24.9048 35.0008H24.8929C25.5864 34.9761 26.1484 35.5555 26.1484 36.2581V50.5577C26.1484 51.3467 25.5267 52 24.7494 52H19.5476C18.7822 52 18.1484 51.359 18.1484 50.5577V36.5663C18.1484 35.7897 18.7583 35.1364 19.5236 35.124Z" fill="white"/>
</g>
<defs>
<clipPath id="clip0_1005_1276">
<rect width="72" height="72" fill="white" transform="translate(0.148438)"/>
</clipPath>
</defs>
</svg>
