<svg width="23" height="22" viewBox="0 0 23 22" fill="none" xmlns="http://www.w3.org/2000/svg">
<path d="M11.625 0C9.44941 0 7.32267 0.645139 5.51373 1.85383C3.70479 3.06253 2.29489 4.78049 1.46233 6.79048C0.629766 8.80047 0.411929 11.0122 0.836367 13.146C1.2608 15.2798 2.30845 17.2398 3.84683 18.7782C5.38521 20.3165 7.34522 21.3642 9.47901 21.7886C11.6128 22.2131 13.8245 21.9952 15.8345 21.1627C17.8445 20.3301 19.5625 18.9202 20.7712 17.1113C21.9799 15.3023 22.625 13.1756 22.625 11C22.625 8.08262 21.4661 5.28472 19.4032 3.22182C17.3403 1.15892 14.5424 0 11.625 0ZM10.0536 15.3921L6.125 11.4636L7.37429 10.2143L10.0536 12.8936L15.8757 7.07143L17.1297 8.31757L10.0536 15.3921Z" fill="#5B58EB"/>
</svg>
