<svg width="33" height="32" viewBox="0 0 33 32" fill="none" xmlns="http://www.w3.org/2000/svg">
<path d="M22.9773 7.76C22.0661 6.71937 21.5638 5.3832 21.564 4H17.444V20.5333C17.4128 21.4283 17.0353 22.2761 16.391 22.898C15.7467 23.5199 14.8861 23.8672 13.9906 23.8667C12.0973 23.8667 10.524 22.32 10.524 20.4C10.524 18.1067 12.7373 16.3867 15.0173 17.0933V12.88C10.4173 12.2667 6.39062 15.84 6.39062 20.4C6.39062 24.84 10.0706 28 13.9773 28C18.164 28 21.564 24.6 21.564 20.4V12.0133C23.2346 13.2131 25.2404 13.8569 27.2973 13.8533V9.73333C27.2973 9.73333 24.7906 9.85333 22.9773 7.76Z" fill="white"/>
</svg>
