<svg width="73" height="72" viewBox="0 0 73 72" fill="none" xmlns="http://www.w3.org/2000/svg">
<g clip-path="url(#clip0_1005_818)">
<path d="M0.148438 24C0.148438 12.6863 0.148438 7.02944 3.66316 3.51472C7.17788 0 12.8347 0 24.1484 0H48.1484C59.4621 0 65.119 0 68.6337 3.51472C72.1484 7.02944 72.1484 12.6863 72.1484 24V48C72.1484 59.3137 72.1484 64.9706 68.6337 68.4853C65.119 72 59.4621 72 48.1484 72H24.1484C12.8347 72 7.17788 72 3.66316 68.4853C0.148438 64.9706 0.148438 59.3137 0.148438 48V24Z" fill="#B6D7F8"/>
<path fill-rule="evenodd" clip-rule="evenodd" d="M19.6145 22.4327C30.5877 20.5224 41.7239 20.5224 52.6971 22.4327C55.2704 22.8923 57.1484 25.0754 57.1484 27.6463V44.3501C57.1484 46.921 55.2704 49.1041 52.6971 49.5494C47.1957 50.5117 41.6646 51 36.1484 51C30.6322 51 25.1011 50.5117 19.6145 49.5494C17.0264 49.1041 15.1484 46.921 15.1484 44.3501V27.6463C15.1484 25.0754 17.0264 22.8923 19.6145 22.4327ZM34.026 42.0717L41.8588 36.8676V36.8553C42.48 36.439 42.48 35.5451 41.8588 35.1532L34.026 29.9124C33.3317 29.4838 32.4423 29.9491 32.4423 30.7696V41.2145C32.4423 42.035 33.3682 42.537 34.026 42.0717Z" fill="white"/>
</g>
<defs>
<clipPath id="clip0_1005_818">
<rect width="72" height="72" fill="white" transform="translate(0.148438)"/>
</clipPath>
</defs>
</svg>
