<svg width="24" height="24" viewBox="0 0 24 24" fill="none" xmlns="http://www.w3.org/2000/svg">
<path d="M10.1443 16.0079V8.26143C10.1443 7.1963 11.0061 6.32483 12.0809 6.32483H20.7957V5.35653C20.7957 4.29139 19.9242 3.41992 18.859 3.41992H5.30282C4.228 3.41992 3.36621 4.29139 3.36621 5.35653V18.9128C3.36621 19.9779 4.228 20.8494 5.30282 20.8494H18.859C19.9242 20.8494 20.7957 19.9779 20.7957 18.9128V17.9445H12.0809C11.0061 17.9445 10.1443 17.073 10.1443 16.0079ZM13.0492 8.26143C12.5167 8.26143 12.0809 8.69717 12.0809 9.22974V15.0395C12.0809 15.5721 12.5167 16.0079 13.0492 16.0079H21.764V8.26143H13.0492ZM15.9541 13.5871C15.1504 13.5871 14.5017 12.9383 14.5017 12.1346C14.5017 11.331 15.1504 10.6822 15.9541 10.6822C16.7578 10.6822 17.4066 11.331 17.4066 12.1346C17.4066 12.9383 16.7578 13.5871 15.9541 13.5871Z" fill="#BBBCC2"/>
</svg>
